# xmcd
#
# Track frame offsets:
#	150
#	10871
#	20851
#	31565
#	42177
#	55488
#	70629
#	80748
#	90527
#	100163
#	111447
#	122190
#	139469
#	150231
#	157570
#	170294
#	181642
#	204803
#
# Disc length: 2897 seconds
#
# Revision: 1
# Processed by: cddbd v1.4PL0 Copyright (c) Steve Scherf et al.
# Submitted via: audiograbber 1.82.02
#
DISCID=d70b4f12
DTITLE=Various Artist - Country Classics
DYEAR=1900
DGENRE=Country
TTITLE0=Waylon Jennings - Dream Baby
TTITLE1=Dave Dudley - Six Days On The Road
TTITLE2=George Jones - Who Shot Sam
TTITLE3=Roger Miller - King Of The Road
TTITLE4=Gene Autry - Mexicali Rose
TTITLE5=Diana Trask - I Fall To Pieces
TTITLE6=The Dillards - Rueben's Train
TTITLE7=Jimmy Dean - Freight Train Blues
TTITLE8=Benny Barnes - Poor Man's Riches
TTITLE9=Diana Trask - Heartbreak Hotel
TTITLE10=Billy Walker - Charlie's Shoes
TTITLE11=Bobby Bare - Sylvia's Mother
TTITLE12=Carl Bellew - Am I That Easy To Forget
TTITLE13=Faron Young - Back Track
TTITLE14=Freddy Weller - Midnight Driver
TTITLE15=Waylon Jennings - Big Mamou
TTITLE16=Glen Campbell - Milk Cow Blues
TTITLE17=Gene Autry - My Old Kentucky Home
EXTD=
EXTT0=
EXTT1=
EXTT2=
EXTT3=
EXTT4=
EXTT5=
EXTT6=
EXTT7=
EXTT8=
EXTT9=
EXTT10=
EXTT11=
EXTT12=
EXTT13=
EXTT14=
EXTT15=
EXTT16=
EXTT17=
PLAYORDER=
